<?xml version="1.0" encoding="UTF-8" standalone="no"?>
<!-- Created with Inkscape (http://www.inkscape.org/) -->

<svg
   xmlns:dc="http://purl.org/dc/elements/1.1/"
   xmlns:cc="http://creativecommons.org/ns#"
   xmlns:rdf="http://www.w3.org/1999/02/22-rdf-syntax-ns#"
   xmlns:svg="http://www.w3.org/2000/svg"
   xmlns="http://www.w3.org/2000/svg"
   xmlns:xlink="http://www.w3.org/1999/xlink"
   xmlns:sodipodi="http://sodipodi.sourceforge.net/DTD/sodipodi-0.dtd"
   xmlns:inkscape="http://www.inkscape.org/namespaces/inkscape"
   id="svg3542"
   version="1.1"
   inkscape:version="0.48.3.1 r9886"
   width="663.94"
   height="206.92"
   xml:space="preserve"
   sodipodi:docname="contao_konferenz_logo2012.pdf"><metadata
     id="metadata3548"><rdf:RDF><cc:Work
         rdf:about=""><dc:format>image/svg+xml</dc:format><dc:type
           rdf:resource="http://purl.org/dc/dcmitype/StillImage" /><dc:title></dc:title></cc:Work></rdf:RDF></metadata><defs
     id="defs3546"><clipPath
       clipPathUnits="userSpaceOnUse"
       id="clipPath3560"><path
         d="M 0,0 266,0 266,83 0,83 0,0 z"
         id="path3562"
         inkscape:connector-curvature="0" /></clipPath><clipPath
       clipPathUnits="userSpaceOnUse"
       id="clipPath3564"><path
         d="m 0,78.227 86,0 0,-78 -86,0 0,78 z"
         id="path3566"
         inkscape:connector-curvature="0" /></clipPath><clipPath
       clipPathUnits="userSpaceOnUse"
       id="clipPath3568"><path
         d="M 0,0 266,0 266,83 0,83 0,0 z"
         id="path3570"
         inkscape:connector-curvature="0" /></clipPath><mask
       maskUnits="userSpaceOnUse"
       x="0"
       y="0"
       width="1"
       height="1"
       id="mask3572"><g
         id="g3574"><g
           clip-path="url(#clipPath3568)"
           id="g3576"><path
             d="M 0,0 266,0 266,83 0,83 0,0 z"
             style="fill:#000000;fill-opacity:0.5;fill-rule:nonzero;stroke:none"
             id="path3578"
             inkscape:connector-curvature="0" /></g></g></mask><clipPath
       clipPathUnits="userSpaceOnUse"
       id="clipPath3580"><path
         d="M 0,0 266,0 266,83 0,83 0,0 z"
         id="path3582"
         inkscape:connector-curvature="0" /></clipPath><clipPath
       clipPathUnits="userSpaceOnUse"
       id="clipPath3584"><path
         d="M 0,0 266,0 266,83 0,83 0,0 z"
         id="path3586"
         inkscape:connector-curvature="0" /></clipPath><pattern
       patternUnits="userSpaceOnUse"
       x="0"
       y="0"
       width="266"
       height="83"
       id="pattern3588"><g
         id="g3590" /><g
         id="g3592"><g
           clip-path="url(#clipPath3584)"
           id="g3594"><g
             id="g3596" /></g></g></pattern><clipPath
       clipPathUnits="userSpaceOnUse"
       id="clipPath3638"><path
         d="m 12.539,70.17 c -2.582,0 -4.691,-2.109 -4.691,-4.691 l 0,-52.949 c 0,-2.583 2.109,-4.696 4.691,-4.696 l 61.52,0 c 2.582,0 4.695,2.113 4.695,4.696 l 0,52.949 c 0,2.582 -2.113,4.691 -4.695,4.691 l -61.52,0 z"
         id="path3640"
         inkscape:connector-curvature="0" /></clipPath><clipPath
       clipPathUnits="userSpaceOnUse"
       id="clipPath3646"><path
         d="M 0,0 266,0 266,83 0,83 0,0 z"
         id="path3648"
         inkscape:connector-curvature="0" /></clipPath><linearGradient
       x1="0"
       y1="0"
       x2="1"
       y2="0"
       gradientUnits="userSpaceOnUse"
       gradientTransform="matrix(-2.7e-6,62.335937,62.335937,2.7e-6,43.29932,8.063144)"
       spreadMethod="pad"
       id="linearGradient3650"><stop
         style="stop-opacity:1;stop-color:#e37a25"
         offset="0"
         id="stop3652" /><stop
         style="stop-opacity:1;stop-color:#be6328"
         offset="1"
         id="stop3654" /></linearGradient><clipPath
       clipPathUnits="userSpaceOnUse"
       id="clipPath3670"><path
         d="M 20.512,70.17 C 18.598,68.432 16.918,66.416 15.438,64.131 9.125,54.416 11.719,43.807 14.148,32.365 16.129,23.065 17.785,14.209 23.57,7.834 l 43.254,0 c 5.379,5.328 8.422,13 7.977,22.91 L 55.777,26.697 c -0.261,-4.519 -1.797,-8.871 -7.996,-10.183 -3.418,-0.727 -6.277,0.117 -8.054,1.637 -2.184,1.879 -3.93,4.3 -6.879,18.195 -2.957,13.891 -2.344,16.809 -1.114,19.418 1.004,2.109 3.274,4.043 6.692,4.769 6.195,1.317 9.363,-2.031 11.449,-6.05 l 19.02,4.039 c -1.883,4.804 -4.383,8.668 -7.344,11.648 l -41.039,0 z"
         id="path3672"
         inkscape:connector-curvature="0" /></clipPath><clipPath
       clipPathUnits="userSpaceOnUse"
       id="clipPath3678"><path
         d="M 0,0 266,0 266,83 0,83 0,0 z"
         id="path3680"
         inkscape:connector-curvature="0" /></clipPath><linearGradient
       x1="0"
       y1="0"
       x2="1"
       y2="0"
       gradientUnits="userSpaceOnUse"
       gradientTransform="matrix(-3.5e-6,-78.95166,-78.95166,3.5e-6,43.16944,78.214504)"
       spreadMethod="pad"
       id="linearGradient3682"><stop
         style="stop-opacity:1;stop-color:#ffffff"
         offset="0"
         id="stop3684" /><stop
         style="stop-opacity:1;stop-color:#cccccb"
         offset="1"
         id="stop3686" /></linearGradient><clipPath
       clipPathUnits="userSpaceOnUse"
       id="clipPath3704"><path
         d="M 0,0 266,0 266,83 0,83 0,0 z"
         id="path3706"
         inkscape:connector-curvature="0" /></clipPath><clipPath
       clipPathUnits="userSpaceOnUse"
       id="clipPath3708"><path
         d="m -22.227,93.961 119.609,0 0,-85.898 -119.609,0 0,85.898 z"
         id="path3710"
         inkscape:connector-curvature="0" /></clipPath><clipPath
       clipPathUnits="userSpaceOnUse"
       id="clipPath3712"><path
         d="M 0,0 266,0 266,83 0,83 0,0 z"
         id="path3714"
         inkscape:connector-curvature="0" /></clipPath><mask
       maskUnits="userSpaceOnUse"
       x="0"
       y="0"
       width="1"
       height="1"
       id="mask3716"><g
         id="g3718"><g
           clip-path="url(#clipPath3712)"
           id="g3720"><path
             d="M 0,0 266,0 266,83 0,83 0,0 z"
             style="fill:#000000;fill-opacity:0.25;fill-rule:nonzero;stroke:none"
             id="path3722"
             inkscape:connector-curvature="0" /></g></g></mask><clipPath
       clipPathUnits="userSpaceOnUse"
       id="clipPath3724"><path
         d="M 0,0 266,0 266,83 0,83 0,0 z"
         id="path3726"
         inkscape:connector-curvature="0" /></clipPath><clipPath
       clipPathUnits="userSpaceOnUse"
       id="clipPath3728"><path
         d="M 0,0 266,0 266,83 0,83 0,0 z"
         id="path3730"
         inkscape:connector-curvature="0" /></clipPath><clipPath
       clipPathUnits="userSpaceOnUse"
       id="clipPath3732"><path
         d="m 7.848,70.398 70.906,0 0,-62.336 -70.906,0 0,62.336 z"
         id="path3734"
         inkscape:connector-curvature="0" /></clipPath><clipPath
       clipPathUnits="userSpaceOnUse"
       id="clipPath3736"><path
         d="M 0,0 266,0 266,83 0,83 0,0 z"
         id="path3738"
         inkscape:connector-curvature="0" /></clipPath><pattern
       patternUnits="userSpaceOnUse"
       x="0"
       y="0"
       width="266"
       height="83"
       id="pattern3740"><g
         id="g3742" /><g
         id="g3744"><g
           clip-path="url(#clipPath3728)"
           id="g3746"><g
             id="g3748" /><g
             id="g3750"><g
               clip-path="url(#clipPath3732)"
               id="g3752"><g
                 id="g3754"><g
                   id="g3756" /><g
                   id="g3758"><g
                     clip-path="url(#clipPath3736)"
                     id="g3760"><g
                       id="g3762" /><g
                       id="g3764"><path
                         d="m 97.383,66.492 c 0,-15.168 -26.778,-27.461 -59.809,-27.461 -33.027,0 -59.801,12.293 -59.801,27.461 0,15.168 26.774,27.469 59.801,27.469 33.031,0 59.809,-12.301 59.809,-27.469"
                         style="fill:#ffffff;fill-opacity:1;fill-rule:nonzero;stroke:none"
                         id="path3766" /></g></g></g></g></g></g></g></g></pattern><clipPath
       clipPathUnits="userSpaceOnUse"
       id="clipPath3798"><path
         d="m 112.391,63.967 c -3.192,-3.195 -3.106,-7.137 -3.106,-12.582 0,-5.441 -0.086,-9.387 3.106,-12.574 2.207,-2.219 5.05,-3.461 8.504,-3.461 5.843,0 10.496,3.367 11.605,9.969 l -6.254,0 c -0.617,-2.528 -2.211,-4.469 -5.312,-4.469 -1.68,0 -3.051,0.617 -3.938,1.633 -1.199,1.336 -1.555,2.836 -1.555,8.902 0,6.07 0.356,7.57 1.555,8.91 0.887,1.012 2.258,1.625 3.938,1.625 3.101,0 4.695,-1.941 5.312,-4.465 l 6.254,0 c -1.109,6.598 -5.719,9.965 -11.605,9.965 -3.454,0 -6.297,-1.238 -8.504,-3.453 m 67.707,0.883 0,-6.82 -2.434,0 0,-4.387 2.434,0 0,-11.418 c 0,-3.285 2,-6.606 6.691,-6.606 l 3.141,0 0,4.868 -2.075,0 c -1.371,0 -1.996,0.757 -1.996,2.082 l 0,11.074 4.071,0 0,4.387 -4.071,0 0,8.082 c 0,0 -3.355,-1.262 -5.761,-1.262 m 35.605,-8.723 c -2.086,-2.172 -2.613,-4.789 -2.613,-8.949 0,-4.203 0.527,-6.82 2.613,-8.992 1.414,-1.504 3.723,-2.836 7.133,-2.836 3.41,0 5.762,1.332 7.176,2.836 2.082,2.172 2.605,4.789 2.605,8.992 0,4.16 -0.523,6.777 -2.605,8.949 -1.414,1.504 -3.766,2.828 -7.176,2.828 -3.41,0 -5.719,-1.324 -7.133,-2.828 m 4.477,-14.566 c -1.2,1.191 -1.336,3.23 -1.336,5.617 0,2.394 0.136,4.383 1.336,5.578 0.66,0.664 1.508,1.02 2.656,1.02 1.148,0 2.043,-0.356 2.703,-1.02 1.191,-1.195 1.324,-3.184 1.324,-5.578 0,-2.387 -0.133,-4.426 -1.324,-5.617 -0.66,-0.668 -1.555,-1.028 -2.703,-1.028 -1.148,0 -1.996,0.36 -2.656,1.028 m -27.871,14.211 3.679,-3.59 c 1.2,1.375 2.211,1.91 4.43,1.91 3.059,0 4.289,-1.113 4.289,-3.633 l 0,-1.156 -5.441,0 c -5.36,0 -7.883,-3.008 -7.883,-6.684 0,-2.039 0.668,-3.902 1.906,-5.183 1.367,-1.383 3.277,-2.039 5.887,-2.039 2.66,0 4.121,0.656 5.668,2.215 l 0,-1.993 5.629,0 0,15.188 c 0,5.406 -3.364,8.148 -9.832,8.148 -3.856,0 -6.071,-0.703 -8.332,-3.183 m 4.609,-13.02 c 0,1.633 1.152,2.606 3.234,2.606 l 4.555,0 0,-1.235 c 0,-1.422 -0.219,-2.343 -0.836,-2.926 -1.012,-0.976 -2.035,-1.101 -3.625,-1.101 -2.266,0 -3.328,1.066 -3.328,2.656 m -34.57,13.813 0,2.132 -5.633,0 0,-23.078 5.769,0 0,13.953 c 0,3.145 2.036,4.204 3.848,4.204 1.816,0 3.809,-1.059 3.809,-4.204 l 0,-13.953 5.757,0 0,14.746 c 0,2.532 -0.484,4.7 -2.347,6.551 -1.285,1.289 -3.141,2.039 -5.449,2.039 -2.125,0 -4.25,-0.789 -5.754,-2.39 m -25.422,-0.438 c -2.078,-2.172 -2.61,-4.789 -2.61,-8.949 0,-4.203 0.532,-6.82 2.61,-8.992 1.418,-1.504 3.722,-2.836 7.133,-2.836 3.41,0 5.757,1.332 7.175,2.836 2.082,2.172 2.614,4.789 2.614,8.992 0,4.16 -0.532,6.777 -2.614,8.949 -1.418,1.504 -3.765,2.828 -7.175,2.828 -3.411,0 -5.715,-1.324 -7.133,-2.828 m 4.472,-14.566 c -1.191,1.191 -1.328,3.23 -1.328,5.617 0,2.394 0.137,4.383 1.328,5.578 0.664,0.664 1.508,1.02 2.661,1.02 1.152,0 2.039,-0.356 2.699,-1.02 1.199,-1.195 1.332,-3.184 1.332,-5.578 0,-2.387 -0.133,-4.426 -1.332,-5.617 -0.66,-0.668 -1.547,-1.028 -2.699,-1.028 -1.153,0 -1.997,0.36 -2.661,1.028"
         id="path3800"
         inkscape:connector-curvature="0" /></clipPath><clipPath
       clipPathUnits="userSpaceOnUse"
       id="clipPath3806"><path
         d="M 0,0 266,0 266,83 0,83 0,0 z"
         id="path3808"
         inkscape:connector-curvature="0" /></clipPath><linearGradient
       x1="0"
       y1="0"
       x2="1"
       y2="0"
       gradientUnits="userSpaceOnUse"
       gradientTransform="matrix(-1.4e-6,-32.069336,-32.069336,1.4e-6,170.95215,67.647614)"
       spreadMethod="pad"
       id="linearGradient3810"><stop
         style="stop-opacity:1;stop-color:#e37a25"
         offset="0"
         id="stop3812" /><stop
         style="stop-opacity:1;stop-color:#be6328"
         offset="0.99"
         id="stop3814" /><stop
         style="stop-opacity:1;stop-color:#be6328"
         offset="1"
         id="stop3816" /></linearGradient><clipPath
       clipPathUnits="userSpaceOnUse"
       id="clipPath3836"><path
         d="M 0,0 266,0 266,83 0,83 0,0 z"
         id="path3838"
         inkscape:connector-curvature="0" /></clipPath><linearGradient
       inkscape:collect="always"
       xlink:href="#linearGradient3650"
       id="linearGradient3958"
       gradientUnits="userSpaceOnUse"
       gradientTransform="matrix(-2.7e-6,62.335937,62.335937,2.7e-6,43.29932,8.063144)"
       spreadMethod="pad"
       x1="0"
       y1="0"
       x2="1"
       y2="0" /><linearGradient
       inkscape:collect="always"
       xlink:href="#linearGradient3682"
       id="linearGradient3960"
       gradientUnits="userSpaceOnUse"
       gradientTransform="matrix(-3.5e-6,-78.95166,-78.95166,3.5e-6,43.16944,78.214504)"
       spreadMethod="pad"
       x1="0"
       y1="0"
       x2="1"
       y2="0" /><linearGradient
       inkscape:collect="always"
       xlink:href="#linearGradient3810"
       id="linearGradient3962"
       gradientUnits="userSpaceOnUse"
       gradientTransform="matrix(-1.4e-6,-32.069336,-32.069336,1.4e-6,170.95215,67.647614)"
       spreadMethod="pad"
       x1="0"
       y1="0"
       x2="1"
       y2="0" /></defs><sodipodi:namedview
     pagecolor="#ffffff"
     bordercolor="#666666"
     borderopacity="1"
     objecttolerance="10"
     gridtolerance="10"
     guidetolerance="10"
     inkscape:pageopacity="0"
     inkscape:pageshadow="2"
     inkscape:window-width="1875"
     inkscape:window-height="1060"
     id="namedview3544"
     showgrid="false"
     inkscape:zoom="1.2230059"
     inkscape:cx="165.98448"
     inkscape:cy="51.732311"
     inkscape:window-x="43"
     inkscape:window-y="-3"
     inkscape:window-maximized="1"
     inkscape:current-layer="g3550" /><g
     id="g3550"
     inkscape:groupmode="layer"
     inkscape:label="contao_konferenz_logo2012"
     transform="matrix(1.25,0,0,-1.25,0,206.92)"><g
       id="g3552" /><g
       id="g3872"
       transform="matrix(2.0000151,0,0,1.9998792,0,0.00130184)"><g
         id="g3554"><g
           transform="translate(0,-0.228302)"
           id="g3556"><g
             id="g3558" /><g
             id="g3598"><g
               id="g3600"
               clip-path="url(#clipPath3560)"><g
                 id="g3602"><path
                   inkscape:connector-curvature="0"
                   id="path3604"
                   style="fill:#999999;fill-opacity:1;fill-rule:nonzero;stroke:none"
                   d="m 265.574,67.922 c 0,-1.203 -0.984,-2.192 -2.191,-2.192 l -28.571,0 c -1.207,0 -2.191,0.989 -2.191,2.192 l 0,12.887 c 0,1.203 0.984,2.191 2.191,2.191 l 28.571,0 c 1.207,0 2.191,-0.988 2.191,-2.191 l 0,-12.887 z" /><path
                   inkscape:connector-curvature="0"
                   id="path3606"
                   style="fill:#999999;fill-opacity:1;fill-rule:nonzero;stroke:none"
                   d="m 248.035,67.66 -10.457,-9.859 0,9.894" /><path
                   inkscape:connector-curvature="0"
                   id="path3608"
                   style="fill:#e37a25;fill-opacity:1;fill-rule:nonzero;stroke:none"
                   d="m 232.621,25.293 c 0,1.207 -0.988,2.195 -2.195,2.195 l -118.598,0 c -1.207,0 -2.195,-0.988 -2.195,-2.195 l 0,-12.883 c 0,-1.207 0.988,-2.191 2.195,-2.191 l 118.598,0 c 1.207,0 2.195,0.984 2.195,2.191 l 0,12.883 z" /></g><g
                 id="g3610"><g
                   id="g3612"
                   clip-path="url(#clipPath3564)"><g
                     id="g3614"><g
                       id="g3616" /><g
                       id="g3618"
                       mask="url(#mask3572)"><g
                         id="g3620" /><g
                         id="g3622"><g
                           id="g3624"
                           clip-path="url(#clipPath3580)"><g
                             id="g3626"><path
                               inkscape:connector-curvature="0"
                               id="path3628"
                               style="fill:url(#pattern3588);fill-opacity:1;fill-rule:nonzero;stroke:none"
                               d="M 0,0 266,0 266,83 0,83 0,0 z" /></g></g></g></g></g></g></g><g
                 id="g3630"><path
                   inkscape:connector-curvature="0"
                   id="path3632"
                   style="fill:none;stroke:#ffffff;stroke-width:3.94799995;stroke-linecap:butt;stroke-linejoin:miter;stroke-miterlimit:4;stroke-opacity:1;stroke-dasharray:none"
                   d="m 78.754,12.758 c 0,-2.582 -2.113,-4.696 -4.695,-4.696 l -61.52,0 c -2.582,0 -4.691,2.114 -4.691,4.696 l 0,52.949 c 0,2.582 2.109,4.691 4.691,4.691 l 61.52,0 c 2.582,0 4.695,-2.109 4.695,-4.691 l 0,-52.949 z" /></g></g></g></g></g><g
         id="g3634"><g
           clip-path="url(#clipPath3638)"
           id="g3636"><g
             transform="translate(0,-0.228302)"
             id="g3642"><g
               id="g3644" /><g
               id="g3656"><g
                 id="g3658"
                 clip-path="url(#clipPath3646)"><g
                   id="g3660"><g
                     id="g3662"><path
                       inkscape:connector-curvature="0"
                       id="path3664"
                       style="fill:url(#linearGradient3958);fill-opacity:1;fill-rule:nonzero;stroke:none"
                       d="m 12.539,70.398 c -2.582,0 -4.691,-2.109 -4.691,-4.691 l 0,-52.949 c 0,-2.582 2.109,-4.696 4.691,-4.696 l 61.52,0 c 2.582,0 4.695,2.114 4.695,4.696 l 0,52.949 c 0,2.582 -2.113,4.691 -4.695,4.691 l -61.52,0 z" /></g></g></g></g></g></g></g><g
         id="g3666"><g
           clip-path="url(#clipPath3670)"
           id="g3668"><g
             transform="translate(0,-0.228302)"
             id="g3674"><g
               id="g3676" /><g
               id="g3688"><g
                 id="g3690"
                 clip-path="url(#clipPath3678)"><g
                   id="g3692"><g
                     id="g3694"><path
                       inkscape:connector-curvature="0"
                       id="path3696"
                       style="fill:url(#linearGradient3960);fill-opacity:1;fill-rule:nonzero;stroke:none"
                       d="M 20.512,70.398 C 18.598,68.66 16.918,66.645 15.438,64.359 9.125,54.645 11.719,44.035 14.148,32.594 16.129,23.293 17.785,14.438 23.57,8.062 l 43.254,0 c 5.379,5.329 8.422,13 7.977,22.911 L 55.777,26.926 c -0.261,-4.52 -1.797,-8.871 -7.996,-10.184 -3.418,-0.726 -6.277,0.117 -8.054,1.637 -2.184,1.879 -3.93,4.301 -6.879,18.195 -2.957,13.891 -2.344,16.809 -1.114,19.418 1.004,2.11 3.274,4.043 6.692,4.77 6.195,1.316 9.363,-2.032 11.449,-6.051 l 19.02,4.039 c -1.883,4.805 -4.383,8.668 -7.344,11.648 l -41.039,0 z" /></g></g></g></g></g></g></g><g
         id="g3698"><g
           transform="translate(0,-0.228302)"
           id="g3700"><g
             id="g3702" /><g
             id="g3768"><g
               id="g3770"
               clip-path="url(#clipPath3704)"><g
                 id="g3772" /><g
                 id="g3774"><g
                   id="g3776"
                   clip-path="url(#clipPath3708)"><g
                     id="g3778"><g
                       id="g3780" /><g
                       id="g3782"
                       mask="url(#mask3716)"><g
                         id="g3784" /><g
                         id="g3786"><g
                           id="g3788"
                           clip-path="url(#clipPath3724)"><g
                             id="g3790"><path
                               inkscape:connector-curvature="0"
                               id="path3792"
                               style="fill:url(#pattern3740);fill-opacity:1;fill-rule:nonzero;stroke:none"
                               d="M 0,0 266,0 266,83 0,83 0,0 z" /></g></g></g></g></g></g></g></g></g></g></g><g
         id="g3794"><g
           clip-path="url(#clipPath3798)"
           id="g3796"><g
             transform="translate(0,-0.228302)"
             id="g3802"><g
               id="g3804" /><g
               id="g3818"><g
                 id="g3820"
                 clip-path="url(#clipPath3806)"><g
                   id="g3822" /><g
                   id="g3824"><g
                     id="g3826"><path
                       inkscape:connector-curvature="0"
                       id="path3828"
                       style="fill:url(#linearGradient3962);fill-opacity:1;fill-rule:nonzero;stroke:none"
                       d="m 112.391,64.195 c -3.192,-3.195 -3.106,-7.136 -3.106,-12.582 0,-5.441 -0.086,-9.386 3.106,-12.574 2.207,-2.219 5.05,-3.461 8.504,-3.461 5.843,0 10.496,3.367 11.605,9.969 l -6.254,0 c -0.617,-2.527 -2.211,-4.469 -5.312,-4.469 -1.68,0 -3.051,0.617 -3.938,1.633 -1.199,1.336 -1.555,2.836 -1.555,8.902 0,6.071 0.356,7.571 1.555,8.91 0.887,1.012 2.258,1.625 3.938,1.625 3.101,0 4.695,-1.941 5.312,-4.464 l 6.254,0 c -1.109,6.597 -5.719,9.964 -11.605,9.964 -3.454,0 -6.297,-1.238 -8.504,-3.453 m 67.707,0.883 0,-6.82 -2.434,0 0,-4.387 2.434,0 0,-11.418 c 0,-3.285 2,-6.605 6.691,-6.605 l 3.141,0 0,4.867 -2.075,0 c -1.371,0 -1.996,0.758 -1.996,2.082 l 0,11.074 4.071,0 0,4.387 -4.071,0 0,8.082 c 0,0 -3.355,-1.262 -5.761,-1.262 m 35.605,-8.723 c -2.086,-2.171 -2.613,-4.789 -2.613,-8.949 0,-4.203 0.527,-6.82 2.613,-8.992 1.414,-1.504 3.723,-2.836 7.133,-2.836 3.41,0 5.762,1.332 7.176,2.836 2.082,2.172 2.605,4.789 2.605,8.992 0,4.16 -0.523,6.778 -2.605,8.949 -1.414,1.504 -3.766,2.829 -7.176,2.829 -3.41,0 -5.719,-1.325 -7.133,-2.829 m 4.477,-14.566 c -1.2,1.191 -1.336,3.231 -1.336,5.617 0,2.395 0.136,4.383 1.336,5.578 0.66,0.664 1.508,1.02 2.656,1.02 1.148,0 2.043,-0.356 2.703,-1.02 1.191,-1.195 1.324,-3.183 1.324,-5.578 0,-2.386 -0.133,-4.426 -1.324,-5.617 -0.66,-0.668 -1.555,-1.027 -2.703,-1.027 -1.148,0 -1.996,0.359 -2.656,1.027 M 192.309,56 l 3.679,-3.59 c 1.2,1.375 2.211,1.91 4.43,1.91 3.059,0 4.289,-1.113 4.289,-3.632 l 0,-1.157 -5.441,0 c -5.36,0 -7.883,-3.008 -7.883,-6.683 0,-2.039 0.668,-3.903 1.906,-5.184 1.367,-1.383 3.277,-2.039 5.887,-2.039 2.66,0 4.121,0.656 5.668,2.215 l 0,-1.992 5.629,0 0,15.187 c 0,5.406 -3.364,8.149 -9.832,8.149 -3.856,0 -6.071,-0.704 -8.332,-3.184 m 4.609,-13.02 c 0,1.633 1.152,2.606 3.234,2.606 l 4.555,0 0,-1.234 c 0,-1.422 -0.219,-2.344 -0.836,-2.926 -1.012,-0.977 -2.035,-1.102 -3.625,-1.102 -2.266,0 -3.328,1.067 -3.328,2.656 m -34.57,13.813 0,2.133 -5.633,0 0,-23.078 5.769,0 0,13.953 c 0,3.144 2.036,4.203 3.848,4.203 1.816,0 3.809,-1.059 3.809,-4.203 l 0,-13.953 5.757,0 0,14.746 c 0,2.531 -0.484,4.699 -2.347,6.551 -1.285,1.289 -3.141,2.039 -5.449,2.039 -2.125,0 -4.25,-0.789 -5.754,-2.391 m -25.422,-0.438 c -2.078,-2.171 -2.61,-4.789 -2.61,-8.949 0,-4.203 0.532,-6.82 2.61,-8.992 1.418,-1.504 3.722,-2.836 7.133,-2.836 3.41,0 5.757,1.332 7.175,2.836 2.082,2.172 2.614,4.789 2.614,8.992 0,4.16 -0.532,6.778 -2.614,8.949 -1.418,1.504 -3.765,2.829 -7.175,2.829 -3.411,0 -5.715,-1.325 -7.133,-2.829 m 4.472,-14.566 c -1.191,1.191 -1.328,3.231 -1.328,5.617 0,2.395 0.137,4.383 1.328,5.578 0.664,0.664 1.508,1.02 2.661,1.02 1.152,0 2.039,-0.356 2.699,-1.02 1.199,-1.195 1.332,-3.183 1.332,-5.578 0,-2.386 -0.133,-4.426 -1.332,-5.617 -0.66,-0.668 -1.547,-1.027 -2.699,-1.027 -1.153,0 -1.997,0.359 -2.661,1.027" /></g></g></g></g></g></g></g><g
         id="g3830"><g
           transform="translate(0,-0.228302)"
           id="g3832"><g
             id="g3834" /><g
             id="g3840"><g
               id="g3842"
               clip-path="url(#clipPath3836)"><g
                 id="g3844"><path
                   inkscape:connector-curvature="0"
                   id="path3846"
                   style="fill:#ffffff;fill-opacity:1;fill-rule:nonzero;stroke:none"
                   d="m 124.535,14.391 -2.258,3.992 -1.132,-1.356 0,-2.636 -1.715,0 0,8.777 1.715,0 0,-3.824 3.093,3.824 2.086,0 -2.91,-3.488 3.117,-5.289 -1.996,0 z" /><path
                   inkscape:connector-curvature="0"
                   id="path3848"
                   style="fill:#ffffff;fill-opacity:1;fill-rule:nonzero;stroke:none"
                   d="m 135.875,21.242 c -0.25,0.285 -0.629,0.469 -1.102,0.469 -0.464,0 -0.863,-0.184 -1.105,-0.469 -0.336,-0.367 -0.422,-0.773 -0.422,-2.465 0,-1.687 0.086,-2.093 0.422,-2.465 0.242,-0.285 0.641,-0.468 1.105,-0.468 0.473,0 0.852,0.183 1.102,0.468 0.332,0.372 0.43,0.778 0.43,2.465 0,1.692 -0.098,2.098 -0.43,2.465 m 1.27,-5.965 c -0.618,-0.617 -1.372,-0.961 -2.372,-0.961 -0.996,0 -1.761,0.344 -2.378,0.961 -0.887,0.887 -0.864,1.985 -0.864,3.5 0,1.516 -0.023,2.614 0.864,3.504 0.617,0.614 1.382,0.961 2.378,0.961 1,0 1.754,-0.347 2.372,-0.961 0.886,-0.89 0.875,-1.988 0.875,-3.504 0,-1.515 0.011,-2.613 -0.875,-3.5" /><path
                   inkscape:connector-curvature="0"
                   id="path3850"
                   style="fill:#ffffff;fill-opacity:1;fill-rule:nonzero;stroke:none"
                   d="m 149.281,14.391 -3.476,5.386 0,-5.386 -1.715,0 0,8.777 1.531,0 3.477,-5.379 0,5.379 1.714,0 0,-8.777 -1.531,0 z" /><path
                   inkscape:connector-curvature="0"
                   id="path3852"
                   style="fill:#ffffff;fill-opacity:1;fill-rule:nonzero;stroke:none"
                   d="m 158.895,21.641 0,-2.161 3.464,0 0,-1.527 -3.464,0 0,-3.562 -1.715,0 0,8.777 5.781,0 0,-1.527 -4.066,0 z" /><path
                   inkscape:connector-curvature="0"
                   id="path3854"
                   style="fill:#ffffff;fill-opacity:1;fill-rule:nonzero;stroke:none"
                   d="m 168.777,14.391 0,8.777 5.782,0 0,-1.527 -4.071,0 0,-2.063 3.465,0 0,-1.527 -3.465,0 0,-2.133 4.071,0 0,-1.527 -5.782,0 z" /><path
                   inkscape:connector-curvature="0"
                   id="path3856"
                   style="fill:#ffffff;fill-opacity:1;fill-rule:nonzero;stroke:none"
                   d="m 183.887,21.641 -1.617,0 0,-2.321 1.617,0 c 0.75,0 1.242,0.481 1.242,1.16 0,0.68 -0.492,1.161 -1.242,1.161 m 1.332,-7.25 -1.715,3.5 -1.234,0 0,-3.5 -1.711,0 0,8.777 3.437,0 c 1.789,0 2.848,-1.219 2.848,-2.688 0,-1.234 -0.75,-2 -1.602,-2.308 l 1.961,-3.781 -1.984,0 z" /><path
                   inkscape:connector-curvature="0"
                   id="path3858"
                   style="fill:#ffffff;fill-opacity:1;fill-rule:nonzero;stroke:none"
                   d="m 192.941,14.391 0,8.777 5.786,0 0,-1.527 -4.071,0 0,-2.063 3.465,0 0,-1.527 -3.465,0 0,-2.133 4.071,0 0,-1.527 -5.786,0 z" /><path
                   inkscape:connector-curvature="0"
                   id="path3860"
                   style="fill:#ffffff;fill-opacity:1;fill-rule:nonzero;stroke:none"
                   d="m 209.914,14.391 -3.476,5.386 0,-5.386 -1.711,0 0,8.777 1.527,0 3.476,-5.379 0,5.379 1.711,0 0,-8.777 -1.527,0 z" /><path
                   inkscape:connector-curvature="0"
                   id="path3862"
                   style="fill:#ffffff;fill-opacity:1;fill-rule:nonzero;stroke:none"
                   d="m 217.281,14.391 0,1.379 3.746,5.871 -3.586,0 0,1.527 5.61,0 0,-1.356 -3.762,-5.894 3.762,0 0,-1.527 -5.77,0 z" /><path
                   inkscape:connector-curvature="0"
                   id="path3864"
                   style="fill:#ffffff;fill-opacity:1;fill-rule:nonzero;stroke:none"
                   d="m 237.953,70.219 0,1.402 3.192,3.703 c 0.312,0.375 0.445,0.637 0.445,1.035 0,0.633 -0.375,1.067 -1.031,1.067 -0.516,0 -1.047,-0.266 -1.047,-1.094 l -1.559,0 c 0,1.563 1.141,2.496 2.606,2.496 1.507,0 2.586,-0.945 2.586,-2.484 0,-0.824 -0.321,-1.27 -0.911,-1.953 l -2.386,-2.77 3.297,0 0,-1.402 -5.192,0 z" /><path
                   inkscape:connector-curvature="0"
                   id="path3866"
                   style="fill:#ffffff;fill-opacity:1;fill-rule:nonzero;stroke:none"
                   d="m 248.055,76.262 c 0,0.718 -0.418,1.164 -1.032,1.164 -0.613,0 -1.043,-0.446 -1.043,-1.164 l 0,-3.563 c 0,-0.719 0.43,-1.152 1.043,-1.152 0.614,0 1.032,0.433 1.032,1.152 l 0,3.563 z m -1.032,-6.117 c -1.39,0 -2.601,0.91 -2.601,2.543 l 0,3.597 c 0,1.633 1.211,2.543 2.601,2.543 1.391,0 2.59,-0.91 2.59,-2.543 l 0,-3.597 c 0,-1.633 -1.199,-2.543 -2.59,-2.543" /><path
                   inkscape:connector-curvature="0"
                   id="path3868"
                   style="fill:#ffffff;fill-opacity:1;fill-rule:nonzero;stroke:none"
                   d="m 252.504,70.219 0,6.859 -1.738,-1.512 0,1.68 1.738,1.512 1.558,0 0,-8.539 -1.558,0 z" /><path
                   inkscape:connector-curvature="0"
                   id="path3870"
                   style="fill:#ffffff;fill-opacity:1;fill-rule:nonzero;stroke:none"
                   d="m 255.668,70.219 0,1.402 3.191,3.703 c 0.313,0.375 0.446,0.637 0.446,1.035 0,0.633 -0.375,1.067 -1.032,1.067 -0.515,0 -1.046,-0.266 -1.046,-1.094 l -1.559,0 c 0,1.563 1.141,2.496 2.605,2.496 1.508,0 2.586,-0.945 2.586,-2.484 0,-0.824 -0.32,-1.27 -0.91,-1.953 l -2.387,-2.77 3.297,0 0,-1.402 -5.191,0 z" /></g></g></g></g></g></g></g></svg>