<?xml version="1.0" encoding="UTF-8" standalone="no"?>
<!-- Generator: Adobe Illustrator 14.0.0, SVG Export Plug-In . SVG Version: 6.00 Build 43363)  -->

<svg
   xmlns:dc="http://purl.org/dc/elements/1.1/"
   xmlns:cc="http://creativecommons.org/ns#"
   xmlns:rdf="http://www.w3.org/1999/02/22-rdf-syntax-ns#"
   xmlns:svg="http://www.w3.org/2000/svg"
   xmlns="http://www.w3.org/2000/svg"
   xmlns:sodipodi="http://sodipodi.sourceforge.net/DTD/sodipodi-0.dtd"
   xmlns:inkscape="http://www.inkscape.org/namespaces/inkscape"
   version="1.1"
   id="Ebene_1"
   x="0px"
   y="0px"
   width="315.479px"
   height="119.514px"
   viewBox="0 0 315.479 119.514"
   enable-background="new 0 0 315.479 119.514"
   xml:space="preserve"
   inkscape:version="0.48.0 r9654"
   sodipodi:docname="infinitysoft-logo.svg"
   inkscape:export-filename="/media/srv-km/Kunden/InfinitySOFT/logo/infinitysoft-logo_small.png"
   inkscape:export-xdpi="48.947784"
   inkscape:export-ydpi="48.947784"><metadata
   id="metadata103"><rdf:RDF><cc:Work
       rdf:about=""><dc:format>image/svg+xml</dc:format><dc:type
         rdf:resource="http://purl.org/dc/dcmitype/StillImage" /><dc:title></dc:title></cc:Work></rdf:RDF></metadata><defs
   id="defs101" /><sodipodi:namedview
   pagecolor="#ffffff"
   bordercolor="#666666"
   borderopacity="1"
   objecttolerance="10"
   gridtolerance="10"
   guidetolerance="10"
   inkscape:pageopacity="0"
   inkscape:pageshadow="2"
   inkscape:window-width="640"
   inkscape:window-height="480"
   id="namedview99"
   showgrid="false"
   inkscape:zoom="1.6229289"
   inkscape:cx="157.7395"
   inkscape:cy="59.757"
   inkscape:window-x="0"
   inkscape:window-y="0"
   inkscape:window-maximized="0"
   inkscape:current-layer="Ebene_1" />
<g
   id="g3">
	<path
   d="M43.266,59.354v30.534h-6.931V59.354H43.266z"
   id="path5" />
	<path
   d="M49.157,74.802c0-2.764-0.091-5.118-0.181-7.065h5.98l0.317,3.035h0.136c0.906-1.404,3.171-3.534,6.841-3.534   c4.531,0,7.928,2.99,7.928,9.514v13.139h-6.886V77.611c0-2.854-0.997-4.802-3.488-4.802c-1.903,0-3.035,1.313-3.488,2.583   c-0.181,0.452-0.272,1.087-0.272,1.721v12.775h-6.886L49.157,74.802L49.157,74.802z"
   id="path7" />
	<path
   d="M76.479,89.888V72.809H73.58v-5.073h2.899v-0.951c0-6.117,4.757-9.56,11.598-9.56c2.356,0,5.165,0.543,6.523,1.358   l-1.313,5.21c-1.087-0.59-2.854-1.133-5.029-1.133c-3.624,0-4.893,1.857-4.893,4.304v0.771H96.82v22.152h-6.886V72.809H83.41   v17.079H76.479z"
   id="path9" />
	<path
   d="M102.351,74.802c0-2.764-0.091-5.118-0.181-7.065h5.98l0.317,3.035h0.136c0.906-1.404,3.171-3.534,6.841-3.534   c4.531,0,7.928,2.99,7.928,9.514v13.139h-6.886V77.611c0-2.854-0.997-4.802-3.488-4.802c-1.903,0-3.035,1.313-3.488,2.583   c-0.181,0.452-0.272,1.087-0.272,1.721v12.775h-6.886L102.351,74.802L102.351,74.802z"
   id="path11" />
	<path
   d="M136.015,61.574c0,1.903-1.45,3.443-3.715,3.443c-2.174,0-3.624-1.54-3.579-3.443c-0.045-1.994,1.404-3.488,3.624-3.488   C134.565,58.086,135.97,59.581,136.015,61.574z M128.903,89.888V67.736h6.886v22.152H128.903z"
   id="path13" />
	<path
   d="M149.019,61.71v6.025h4.938v5.073h-4.938v8.019c0,2.674,0.634,3.896,2.718,3.896c0.952,0,1.359-0.046,2.039-0.183   l0.045,5.211c-0.906,0.361-2.537,0.634-4.485,0.634c-2.22,0-4.077-0.814-5.165-1.947c-1.269-1.314-1.903-3.443-1.903-6.568v-9.062   h-2.945v-5.073h2.945v-4.168L149.019,61.71z"
   id="path15" />
	<path
   d="M163.337,67.736l3.307,10.872c0.362,1.313,0.815,2.943,1.088,4.123h0.136c0.317-1.18,0.68-2.854,0.997-4.123l2.718-10.872   h7.385l-5.163,14.588c-3.173,8.788-5.302,12.322-7.794,14.541c-2.399,2.084-4.938,2.81-6.659,3.036l-1.45-5.845   c0.862-0.136,1.95-0.543,2.991-1.179c1.041-0.543,2.174-1.631,2.854-2.764c0.227-0.316,0.361-0.68,0.361-0.996   c0-0.227-0.045-0.589-0.315-1.133l-8.11-20.25L163.337,67.736L163.337,67.736z"
   id="path17" />
	<path
   fill="#0098A1"
   d="M182.005,85.086c1.768,1.087,4.35,1.993,7.066,1.993c4.033,0,6.389-2.129,6.389-5.209   c0-2.854-1.631-4.486-5.754-6.071c-4.982-1.767-8.063-4.349-8.063-8.652c0-4.756,3.94-8.29,9.875-8.29   c3.127,0,5.392,0.725,6.75,1.495l-1.086,3.217c-0.998-0.544-3.037-1.45-5.8-1.45c-4.168,0-5.754,2.491-5.754,4.575   c0,2.854,1.858,4.259,6.071,5.891c5.164,1.992,7.792,4.484,7.792,8.969c0,4.713-3.489,8.836-10.692,8.836   c-2.943,0-6.16-0.906-7.791-1.993L182.005,85.086z"
   id="path19" />
	<path
   fill="#0098A1"
   d="M230.981,74.304c0,10.511-6.39,16.083-14.181,16.083c-8.063,0-13.728-6.253-13.728-15.494   c0-9.694,6.025-16.037,14.181-16.037C225.59,58.856,230.981,65.244,230.981,74.304z M207.288,74.802   c0,6.523,3.533,12.368,9.74,12.368c6.252,0,9.785-5.753,9.785-12.685c0-6.07-3.172-12.414-9.74-12.414   C210.55,62.072,207.288,68.097,207.288,74.802z"
   id="path21" />
	<path
   fill="#0098A1"
   d="M236.104,59.354h16.444v3.308h-12.504v10.147h11.554v3.263h-11.554v13.816h-3.94V59.354L236.104,59.354z"
   id="path23" />
	<path
   fill="#0098A1"
   d="M263.97,62.707h-9.287v-3.353h22.606v3.353h-9.333v27.183h-3.986V62.707z"
   id="path25" />
</g>
<path
   fill="#0098A1"
   d="M2.549,85.015c0,0-1.855,11.167,17.614,18.271c19.468,7.106,49.134-1.016,49.134-1.016  s-36.156,17.26-56.551,10.154C-7.648,105.32,2.549,85.015,2.549,85.015z"
   id="path27" />
<path
   fill="#0098A1"
   d="M314.696,46.025c0,0-3.172-22.761-53.121-23.474c-49.958-0.711-113.386,34.727-113.386,34.727  S220.563-0.094,272.666,0C324.768,0.094,314.696,46.025,314.696,46.025z"
   id="path29" />
<linearGradient
   id="SVGID_1_"
   gradientUnits="userSpaceOnUse"
   x1="-4.2061"
   y1="-1.8459"
   x2="68.8003"
   y2="-1.8459"
   gradientTransform="matrix(1 0 0 -1 8.3398 94.5532)">
	<stop
   offset="0"
   style="stop-color:#FFFFFF"
   id="stop32" />
	<stop
   offset="1"
   style="stop-color:#009EE0"
   id="stop34" />
</linearGradient>
<path
   opacity="0.66"
   fill="url(#SVGID_1_)"
   enable-background="new    "
   d="M6.819,81.835c0,0-1.954,11.169,18.556,18.277  c20.511,7.104,51.765-1.019,51.765-1.019s-38.09,17.261-59.578,10.153C-3.923,102.14,6.819,81.835,6.819,81.835z"
   id="path36" />
<linearGradient
   id="SVGID_2_"
   gradientUnits="userSpaceOnUse"
   x1="-187.4902"
   y1="1088.4265"
   x2="-19.3848"
   y2="1088.4265"
   gradientTransform="matrix(-0.9291 0.2341 0.2443 0.9697 -135.0752 -984.4396)">
	<stop
   offset="0"
   style="stop-color:#FFFFFF"
   id="stop39" />
	<stop
   offset="1"
   style="stop-color:#009EE0"
   id="stop41" />
</linearGradient>
<path
   opacity="0.66"
   fill="url(#SVGID_2_)"
   enable-background="new    "
   d="M307.163,57.695c0,0-1.867-22.853-49.762-26.69  c-47.894-3.84-110.583,27.447-110.583,27.447s72.408-52.56,122.392-49.2C319.201,12.615,307.163,57.695,307.163,57.695z"
   id="path43" />
<g
   id="g45">
	<path
   fill="#333333"
   d="M86.63,103.615v12.135h-1.567v-12.135H86.63z"
   id="path47" />
	<path
   fill="#333333"
   d="M89.491,109.394c0-0.9-0.018-1.64-0.072-2.358h1.405l0.09,1.44h0.036c0.432-0.828,1.44-1.64,2.881-1.64   c1.206,0,3.079,0.722,3.079,3.709v5.203h-1.584v-5.022c0-1.404-0.522-2.574-2.017-2.574c-1.044,0-1.854,0.738-2.125,1.62   c-0.072,0.197-0.108,0.468-0.108,0.737v5.239h-1.584L89.491,109.394L89.491,109.394z"
   id="path49" />
	<path
   fill="#333333"
   d="M99.481,109.394c0-0.9-0.018-1.64-0.072-2.358h1.405l0.09,1.44h0.036c0.432-0.828,1.44-1.64,2.881-1.64   c1.206,0,3.079,0.722,3.079,3.709v5.203h-1.584v-5.022c0-1.404-0.522-2.574-2.017-2.574c-1.044,0-1.854,0.738-2.125,1.62   c-0.072,0.197-0.108,0.468-0.108,0.737v5.239h-1.584L99.481,109.394L99.481,109.394z"
   id="path51" />
	<path
   fill="#333333"
   d="M117.357,111.321c0,3.223-2.232,4.628-4.339,4.628c-2.358,0-4.177-1.729-4.177-4.484   c0-2.916,1.909-4.627,4.321-4.627C115.665,106.837,117.357,108.656,117.357,111.321z M110.443,111.411   c0,1.909,1.099,3.349,2.647,3.349c1.512,0,2.646-1.422,2.646-3.385c0-1.477-0.738-3.349-2.611-3.349   C111.253,108.026,110.443,109.754,110.443,111.411z"
   id="path53" />
	<path
   fill="#333333"
   d="M119.839,107.036l1.71,4.897c0.288,0.792,0.522,1.512,0.702,2.231h0.054   c0.198-0.721,0.45-1.439,0.738-2.231l1.693-4.897h1.656l-3.421,8.714h-1.513l-3.313-8.714H119.839z"
   id="path55" />
	<path
   fill="#333333"
   d="M133.935,113.662c0,0.756,0.036,1.494,0.144,2.088h-1.44l-0.126-1.098h-0.054   c-0.486,0.684-1.423,1.297-2.665,1.297c-1.765,0-2.665-1.243-2.665-2.504c0-2.105,1.873-3.258,5.239-3.24v-0.18   c0-0.721-0.198-2.019-1.98-2.019c-0.81,0-1.657,0.252-2.269,0.648l-0.36-1.044c0.72-0.468,1.765-0.774,2.863-0.774   c2.665,0,3.313,1.818,3.313,3.564V113.662L133.935,113.662z M132.404,111.302c-1.729-0.034-3.691,0.271-3.691,1.964   c0,1.025,0.684,1.513,1.494,1.513c1.134,0,1.854-0.72,2.107-1.458c0.054-0.162,0.09-0.343,0.09-0.505V111.302z"
   id="path57" />
	<path
   fill="#333333"
   d="M138.326,104.947v2.089h2.269v1.206h-2.269v4.699c0,1.08,0.306,1.692,1.188,1.692   c0.432,0,0.685-0.036,0.918-0.107l0.072,1.188c-0.306,0.125-0.792,0.234-1.405,0.234c-0.738,0-1.333-0.253-1.71-0.686   c-0.45-0.468-0.612-1.242-0.612-2.269v-4.754h-1.35v-1.206h1.35v-1.603L138.326,104.947z"
   id="path59" />
	<path
   fill="#333333"
   d="M144.139,104.586c0.018,0.54-0.378,0.974-1.008,0.974c-0.558,0-0.955-0.434-0.955-0.974   c0-0.558,0.414-0.989,0.99-0.989C143.761,103.596,144.139,104.029,144.139,104.586z M142.375,115.75v-8.714h1.584v8.714H142.375z"
   id="path61" />
	<path
   fill="#333333"
   d="M147.199,107.036l1.71,4.897c0.288,0.792,0.522,1.512,0.702,2.231h0.054   c0.198-0.721,0.45-1.439,0.738-2.231l1.693-4.897h1.656l-3.421,8.714h-1.513l-3.313-8.714H147.199z"
   id="path63" />
	<path
   fill="#333333"
   d="M155.947,111.681c0.036,2.143,1.404,3.023,2.99,3.023c1.133,0,1.817-0.198,2.412-0.45l0.271,1.136   c-0.56,0.252-1.513,0.559-2.897,0.559c-2.684,0-4.287-1.783-4.287-4.412s1.549-4.699,4.087-4.699c2.845,0,3.601,2.503,3.601,4.105   c0,0.324-0.035,0.576-0.054,0.738H155.947z M160.593,110.546c0.018-1.008-0.414-2.573-2.197-2.573   c-1.603,0-2.305,1.477-2.431,2.573H160.593z"
   id="path65" />
	<path
   fill="#333333"
   d="M167.735,113.841c0.703,0.433,1.729,0.793,2.809,0.793c1.604,0,2.539-0.847,2.539-2.07   c0-1.134-0.648-1.782-2.286-2.413c-1.981-0.701-3.205-1.729-3.205-3.438c0-1.891,1.566-3.295,3.925-3.295   c1.242,0,2.144,0.288,2.685,0.594l-0.433,1.278c-0.396-0.216-1.207-0.576-2.306-0.576c-1.655,0-2.286,0.99-2.286,1.818   c0,1.135,0.738,1.693,2.412,2.342c2.053,0.791,3.098,1.781,3.098,3.564c0,1.873-1.387,3.512-4.25,3.512   c-1.17,0-2.448-0.361-3.097-0.793L167.735,113.841z"
   id="path67" />
	<path
   fill="#333333"
   d="M184.767,111.321c0,3.223-2.231,4.628-4.34,4.628c-2.357,0-4.178-1.729-4.178-4.484   c0-2.916,1.909-4.627,4.322-4.627C183.073,106.837,184.767,108.656,184.767,111.321z M177.853,111.411   c0,1.909,1.099,3.349,2.646,3.349c1.512,0,2.646-1.422,2.646-3.385c0-1.477-0.738-3.349-2.611-3.349   C178.663,108.026,177.853,109.754,177.853,111.411z"
   id="path69" />
	<path
   fill="#333333"
   d="M186.924,115.75v-7.508h-1.225v-1.206h1.225v-0.415c0-1.224,0.271-2.34,1.009-3.042   c0.594-0.576,1.387-0.811,2.125-0.811c0.558,0,1.043,0.126,1.351,0.252l-0.218,1.225c-0.232-0.108-0.558-0.198-1.008-0.198   c-1.35,0-1.691,1.188-1.691,2.521v0.468h2.105v1.206h-2.105v7.508H186.924z"
   id="path71" />
	<path
   fill="#333333"
   d="M194.124,104.947v2.089h2.27v1.206h-2.27v4.699c0,1.08,0.307,1.692,1.188,1.692   c0.434,0,0.687-0.036,0.92-0.107l0.07,1.188c-0.305,0.125-0.791,0.234-1.404,0.234c-0.737,0-1.332-0.253-1.709-0.686   c-0.451-0.468-0.612-1.242-0.612-2.269v-4.754h-1.351v-1.206h1.351v-1.603L194.124,104.947z"
   id="path73" />
	<path
   fill="#333333"
   d="M198.966,107.036l1.152,4.429c0.252,0.974,0.484,1.873,0.646,2.773h0.055   c0.197-0.883,0.486-1.818,0.773-2.773l1.424-4.429h1.332l1.351,4.356c0.323,1.045,0.575,1.963,0.774,2.846h0.053   c0.145-0.883,0.379-1.801,0.666-2.827l1.244-4.375h1.565l-2.81,8.714h-1.44l-1.332-4.158c-0.308-0.973-0.56-1.837-0.774-2.862   h-0.035c-0.217,1.044-0.486,1.943-0.793,2.881l-1.404,4.141h-1.439l-2.629-8.714L198.966,107.036L198.966,107.036z"
   id="path75" />
	<path
   fill="#333333"
   d="M217.633,113.662c0,0.756,0.036,1.494,0.144,2.088h-1.438l-0.127-1.098h-0.053   c-0.486,0.684-1.425,1.297-2.666,1.297c-1.765,0-2.664-1.243-2.664-2.504c0-2.105,1.873-3.258,5.239-3.24v-0.18   c0-0.721-0.198-2.019-1.98-2.019c-0.811,0-1.656,0.252-2.27,0.648l-0.359-1.044c0.721-0.468,1.766-0.774,2.861-0.774   c2.666,0,3.313,1.818,3.313,3.564V113.662L217.633,113.662z M216.103,111.302c-1.729-0.034-3.69,0.271-3.69,1.964   c0,1.025,0.685,1.513,1.494,1.513c1.135,0,1.854-0.72,2.106-1.458c0.055-0.162,0.09-0.343,0.09-0.505V111.302z"
   id="path77" />
	<path
   fill="#333333"
   d="M220.187,109.754c0-1.025-0.018-1.909-0.071-2.719h1.387l0.056,1.71h0.071   c0.396-1.17,1.351-1.908,2.412-1.908c0.181,0,0.308,0.019,0.45,0.055v1.494c-0.162-0.036-0.324-0.055-0.54-0.055   c-1.117,0-1.908,0.847-2.125,2.035c-0.035,0.216-0.072,0.468-0.072,0.738v4.645h-1.565v-5.995H220.187z"
   id="path79" />
	<path
   fill="#333333"
   d="M226.774,111.681c0.037,2.143,1.404,3.023,2.99,3.023c1.133,0,1.817-0.198,2.411-0.45l0.271,1.136   c-0.559,0.252-1.512,0.559-2.898,0.559c-2.683,0-4.285-1.783-4.285-4.412s1.549-4.699,4.088-4.699c2.844,0,3.602,2.503,3.602,4.105   c0,0.324-0.036,0.576-0.055,0.738H226.774z M231.421,110.546c0.018-1.008-0.414-2.573-2.197-2.573c-1.602,0-2.305,1.477-2.43,2.573   H231.421z"
   id="path81" />
	<path
   fill="#333333"
   d="M234.911,102.966h1.584v12.783h-1.584V102.966z"
   id="path83" />
	<path
   fill="#333333"
   d="M247.045,111.321c0,3.223-2.231,4.628-4.339,4.628c-2.359,0-4.178-1.729-4.178-4.484   c0-2.916,1.908-4.627,4.32-4.627C245.353,106.837,247.045,108.656,247.045,111.321z M240.131,111.411   c0,1.909,1.099,3.349,2.647,3.349c1.512,0,2.646-1.422,2.646-3.385c0-1.477-0.737-3.349-2.61-3.349   S240.131,109.754,240.131,111.411z M241.103,105.487c-0.521,0-0.898-0.433-0.898-0.918c0-0.505,0.414-0.919,0.918-0.919   c0.505,0,0.882,0.396,0.882,0.919c0,0.485-0.358,0.918-0.882,0.918H241.103z M244.435,105.487c-0.521,0-0.883-0.433-0.883-0.918   c0-0.505,0.396-0.919,0.9-0.919s0.883,0.396,0.883,0.919c0,0.485-0.361,0.918-0.883,0.918H244.435z"
   id="path85" />
	<path
   fill="#333333"
   d="M248.824,114.129c0.468,0.307,1.296,0.63,2.089,0.63c1.152,0,1.691-0.575,1.691-1.296   c0-0.757-0.449-1.171-1.619-1.603c-1.566-0.56-2.305-1.422-2.305-2.467c0-1.404,1.135-2.558,3.006-2.558   c0.883,0,1.656,0.252,2.144,0.54l-0.396,1.152c-0.343-0.216-0.973-0.504-1.783-0.504c-0.937,0-1.459,0.54-1.459,1.188   c0,0.721,0.522,1.044,1.656,1.478c1.515,0.576,2.287,1.332,2.287,2.629c0,1.529-1.188,2.629-3.259,2.629   c-0.954,0-1.837-0.253-2.448-0.613L248.824,114.129z"
   id="path87" />
	<path
   fill="#333333"
   d="M263.46,113.374c0,0.899,0.02,1.692,0.072,2.376h-1.404l-0.09-1.422h-0.036   c-0.414,0.702-1.332,1.621-2.881,1.621c-1.368,0-3.007-0.757-3.007-3.818v-5.095h1.584v4.825c0,1.656,0.505,2.772,1.945,2.772   c1.062,0,1.801-0.737,2.088-1.44c0.091-0.234,0.145-0.521,0.145-0.812v-5.347h1.584V113.374L263.46,113.374z"
   id="path89" />
	<path
   fill="#333333"
   d="M266.087,109.394c0-0.9-0.02-1.64-0.072-2.358h1.404l0.09,1.44h0.036c0.433-0.828,1.44-1.64,2.881-1.64   c1.206,0,3.079,0.722,3.079,3.709v5.203h-1.585v-5.022c0-1.404-0.522-2.574-2.017-2.574c-1.045,0-1.854,0.738-2.125,1.62   c-0.071,0.197-0.107,0.468-0.107,0.737v5.239h-1.584V109.394L266.087,109.394z"
   id="path91" />
	<path
   fill="#333333"
   d="M283.513,114.49c0,1.998-0.396,3.223-1.242,3.979c-0.847,0.793-2.07,1.046-3.17,1.046   c-1.043,0-2.195-0.253-2.897-0.722l0.396-1.206c0.576,0.36,1.478,0.686,2.557,0.686c1.621,0,2.81-0.848,2.81-3.043v-0.974h-0.036   c-0.484,0.812-1.423,1.459-2.771,1.459c-2.16,0-3.709-1.837-3.709-4.25c0-2.953,1.926-4.627,3.925-4.627   c1.513,0,2.341,0.792,2.719,1.513h0.036l0.072-1.313h1.387c-0.037,0.63-0.072,1.332-0.072,2.396v5.058H283.513z M281.946,110.474   c0-0.271-0.02-0.505-0.09-0.721c-0.289-0.919-1.063-1.675-2.215-1.675c-1.514,0-2.595,1.278-2.595,3.295   c0,1.711,0.865,3.133,2.575,3.133c0.973,0,1.854-0.61,2.195-1.62c0.091-0.271,0.128-0.575,0.128-0.847L281.946,110.474   L281.946,110.474z"
   id="path93" />
	<path
   fill="#333333"
   d="M287.021,111.681c0.035,2.143,1.404,3.023,2.988,3.023c1.135,0,1.818-0.198,2.413-0.45l0.271,1.136   c-0.559,0.252-1.512,0.559-2.897,0.559c-2.685,0-4.286-1.783-4.286-4.412s1.549-4.699,4.088-4.699c2.846,0,3.602,2.503,3.602,4.105   c0,0.324-0.036,0.576-0.055,0.738H287.021z M291.665,110.546c0.02-1.008-0.414-2.573-2.195-2.573c-1.604,0-2.305,1.477-2.432,2.573   H291.665z"
   id="path95" />
	<path
   fill="#333333"
   d="M295.156,109.394c0-0.9-0.019-1.64-0.072-2.358h1.405l0.09,1.44h0.035c0.433-0.828,1.441-1.64,2.881-1.64   c1.207,0,3.079,0.722,3.079,3.709v5.203h-1.585v-5.022c0-1.404-0.521-2.574-2.017-2.574c-1.044,0-1.854,0.738-2.124,1.62   c-0.072,0.197-0.107,0.468-0.107,0.737v5.239h-1.585V109.394L295.156,109.394z"
   id="path97" />
</g>
</svg>