<?xml version="1.0" encoding="UTF-8" standalone="no"?>
<!-- Generator: Adobe Illustrator 14.0.0, SVG Export Plug-In . SVG Version: 6.00 Build 43363)  -->

<svg
   xmlns:dc="http://purl.org/dc/elements/1.1/"
   xmlns:cc="http://creativecommons.org/ns#"
   xmlns:rdf="http://www.w3.org/1999/02/22-rdf-syntax-ns#"
   xmlns:svg="http://www.w3.org/2000/svg"
   xmlns="http://www.w3.org/2000/svg"
   xmlns:xlink="http://www.w3.org/1999/xlink"
   xmlns:sodipodi="http://sodipodi.sourceforge.net/DTD/sodipodi-0.dtd"
   xmlns:inkscape="http://www.inkscape.org/namespaces/inkscape"
   version="1.1"
   id="Ebene_1"
   x="0px"
   y="0px"
   width="1320.38"
   height="540.25"
   viewBox="0 0 1320.3799 540.24999"
   enable-background="new 0 0 595.28 841.89"
   xml:space="preserve"
   inkscape:version="0.48.3.1 r9886"
   sodipodi:docname="theme+.svg"
   inkscape:export-filename="/remote/sshfs/stage.infinitysoft.de/web/tl_files/Themes/InfinitySoft/images/Theme+ Logo.png"
   inkscape:export-xdpi="132.57564"
   inkscape:export-ydpi="132.57564"><metadata
   id="metadata37"><rdf:RDF><cc:Work
       rdf:about=""><dc:format>image/svg+xml</dc:format><dc:type
         rdf:resource="http://purl.org/dc/dcmitype/StillImage" /><dc:title /></cc:Work></rdf:RDF></metadata><defs
   id="defs35"><linearGradient
     inkscape:collect="always"
     xlink:href="#SVGID_1_"
     id="linearGradient3009"
     gradientUnits="userSpaceOnUse"
     gradientTransform="matrix(1,-0.0032,0.0032,1,-229.59366,-395.87277)"
     x1="332.85739"
     y1="417.68311"
     x2="359.79471"
     y2="405.0444" /><linearGradient
     inkscape:collect="always"
     xlink:href="#SVGID_2_"
     id="linearGradient3011"
     gradientUnits="userSpaceOnUse"
     gradientTransform="translate(-234.05776,-392.41397)"
     x1="237.5562"
     y1="434.32809"
     x2="299.3486"
     y2="434.32809" /></defs><sodipodi:namedview
   pagecolor="#ffffff"
   bordercolor="#666666"
   borderopacity="1"
   objecttolerance="10"
   gridtolerance="10"
   guidetolerance="10"
   inkscape:pageopacity="0"
   inkscape:pageshadow="2"
   inkscape:window-width="1875"
   inkscape:window-height="1060"
   id="namedview33"
   showgrid="false"
   fit-margin-top="0"
   fit-margin-left="0"
   fit-margin-right="0"
   fit-margin-bottom="0"
   inkscape:zoom="0.77682356"
   inkscape:cx="760.78345"
   inkscape:cy="328.30003"
   inkscape:window-x="43"
   inkscape:window-y="-3"
   inkscape:window-maximized="1"
   inkscape:current-layer="Ebene_1" />

<linearGradient
   id="SVGID_1_"
   gradientUnits="userSpaceOnUse"
   x1="332.85739"
   y1="417.68311"
   x2="359.79471"
   y2="405.0444"
   gradientTransform="matrix(1,-0.0032,0.0032,1,-229.59366,-395.87277)">
	<stop
   offset="0"
   style="stop-color:#009EE0"
   id="stop6" />
	<stop
   offset="1"
   style="stop-color:#FFFFFF"
   id="stop8" />
</linearGradient>



<linearGradient
   id="SVGID_2_"
   gradientUnits="userSpaceOnUse"
   x1="237.5562"
   y1="434.32809"
   x2="299.3486"
   y2="434.32809"
   gradientTransform="translate(-234.05776,-392.41397)">
	<stop
   offset="0"
   style="stop-color:#FFFFFF"
   id="stop27" />
	<stop
   offset="1"
   style="stop-color:#009EE0"
   id="stop29" />
</linearGradient>
<g
   id="g2997"
   transform="matrix(9.9743493,0,0,9.9578547,8.4105039e-5,-0.00399545)"><path
     style="fill:#0098a1"
     inkscape:connector-curvature="0"
     id="path3"
     d="m 120.59924,11.731033 c 0,-3.5199996 0,-7.7259996 0,-8.4009996 0,-1.938 -5.118,-1.739 -5.118,-1.739 0,0 0,4.908 0,10.1409996 -3.52,0 -7.963,0 -8.639,0 -1.938,0 -1.502,5.118 -1.502,5.118 0,0 4.908,0 10.141,0 0,3.535 0,7.896 0,8.548 0,1.861 5.118,1.593 5.118,1.593 0,0 0,-4.908 0,-10.141 3.534,0 7.66,0 8.311,0 1.861,0 1.83,-5.118 1.83,-5.118 0,0 -4.908,-10e-4 -10.141,-10e-4 z" /><path
     style="opacity:0.66000001;fill:url(#linearGradient3009)"
     inkscape:connector-curvature="0"
     id="path10"
     d="m 122.61224,9.8020334 c -0.013,-3.96 -0.029,-7.457 -0.031,-8.218 -0.007,-2.18099997 -9.15,-1.47499997 -9.15,-1.47499997 0,0 0.018,3.82499997 0.036,9.71199997 -3.958,0.01 -7.409,0.024 -8.168,0.026 -2.181,0.005 -1.524,9.1529996 -1.524,9.1529996 0,0 3.826,-0.019 9.711,-0.036 0.012,3.976 -0.098,7.306 -0.096,8.04 0.006,2.093 9.277,1.651 9.277,1.651 0,0 -0.018,-3.825 -0.037,-9.712 3.977,-0.011 7.379,-0.029 8.11,-0.029 2.093,-0.009 1.582,-9.1489996 1.582,-9.1489996 0,0 -3.825,0.016 -9.71,0.037 z" /><g
     transform="translate(-234.05776,-392.41397)"
     id="g12">
	<path
   inkscape:connector-curvature="0"
   id="path14"
   d="m 257.88,414.974 h -5.406 v -3.801 h 15.386 v 3.801 h -5.465 v 16.218 h -4.515 v -16.218 z" />
	<path
   inkscape:connector-curvature="0"
   id="path16"
   d="m 269.763,410.103 h 4.515 v 8.317 h 0.06 c 0.475,-0.654 1.069,-1.159 1.782,-1.516 0.683,-0.356 1.515,-0.563 2.346,-0.563 2.881,0 5.079,1.989 5.079,6.386 v 8.465 h -4.515 v -7.99 c 0,-1.9 -0.653,-3.207 -2.347,-3.207 -1.188,0 -1.93,0.771 -2.257,1.604 -0.119,0.268 -0.149,0.653 -0.149,0.98 v 8.613 h -4.515 v -21.089 z" />
	<path
   inkscape:connector-curvature="0"
   id="path18"
   d="m 290.646,425.369 c 0.119,1.871 1.99,2.763 4.099,2.763 1.544,0 2.792,-0.208 4.01,-0.623 l 0.594,3.059 c -1.485,0.624 -3.297,0.921 -5.257,0.921 -4.931,0 -7.752,-2.852 -7.752,-7.396 0,-3.683 2.287,-7.751 7.336,-7.751 4.693,0 6.475,3.653 6.475,7.247 0,0.772 -0.089,1.455 -0.148,1.781 h -9.357 z m 5.317,-3.088 c 0,-1.099 -0.476,-2.941 -2.555,-2.941 -1.901,0 -2.673,1.753 -2.792,2.941 h 5.347 z" />
	<path
   inkscape:connector-curvature="0"
   id="path20"
   d="m 302.855,421.301 c 0,-1.812 -0.06,-3.327 -0.119,-4.634 h 3.832 l 0.178,1.96 h 0.09 c 0.623,-0.95 1.93,-2.316 4.396,-2.316 1.901,0 3.356,0.98 3.979,2.495 h 0.061 c 0.564,-0.771 1.188,-1.366 1.9,-1.782 0.802,-0.446 1.693,-0.713 2.762,-0.713 2.793,0 4.902,1.96 4.902,6.327 v 8.554 h -4.396 v -7.9 c 0,-2.108 -0.684,-3.327 -2.139,-3.327 -1.069,0 -1.783,0.713 -2.109,1.574 -0.089,0.327 -0.148,0.772 -0.148,1.158 v 8.495 h -4.396 v -8.168 c 0,-1.813 -0.653,-3.06 -2.108,-3.06 -1.158,0 -1.842,0.892 -2.109,1.604 -0.148,0.356 -0.179,0.771 -0.179,1.158 v 8.465 h -4.396 v -9.89 z" />
	<path
   inkscape:connector-curvature="0"
   id="path22"
   d="m 331.877,425.369 c 0.119,1.871 1.99,2.763 4.1,2.763 1.545,0 2.792,-0.208 4.01,-0.623 l 0.594,3.059 c -1.484,0.624 -3.297,0.921 -5.258,0.921 -4.93,0 -7.752,-2.852 -7.752,-7.396 0,-3.683 2.287,-7.751 7.336,-7.751 4.693,0 6.476,3.653 6.476,7.247 0,0.772 -0.089,1.455 -0.148,1.781 h -9.358 z m 5.317,-3.088 c 0,-1.099 -0.476,-2.941 -2.555,-2.941 -1.901,0 -2.673,1.753 -2.792,2.941 h 5.347 z" />
</g><path
     style="fill:#0098a1"
     inkscape:connector-curvature="0"
     id="path24"
     d="m 2.1582406,33.997033 c 0,0 -1.57100005,7.766 14.9080004,12.707 16.478,4.942 41.587,-0.706 41.587,-0.706 0,0 -30.603,12.004 -47.865,7.063 -17.2620004,-4.943 -8.6300004,-19.064 -8.6300004,-19.064 z" /><path
     style="opacity:0.66000001;fill:url(#linearGradient3011)"
     inkscape:connector-curvature="0"
     id="path31"
     d="m 5.7712406,31.785033 c 0,0 -1.653,7.768 15.7070004,12.712 17.36,4.94 43.813,-0.708 43.813,-0.708 0,0 -32.239,12.004 -50.426,7.062 -18.1860004,-4.944 -9.0940004,-19.066 -9.0940004,-19.066 z" /></g>
</svg>